# xmcd
#
# Track frame offsets:
#	150
#	14429
#	25445
#	34141
#	45127
#	57950
#	72061
#	84151
#	97160
#	110071
#	122897
#	134570
#	148569
#	159133
#	169888
#	186246
#	199956
#	213205
#	227646
#	243611
#
# Disc length: 3401 seconds
#
# Revision: 0
# Processed by: cddbd v1.5.2PL0 Copyright (c) Steve Scherf et al.
# Submitted via: dBpowerAMP V4.0
#
DISCID=1a0d4714
DTITLE=Henri Salvador - Premières chansons douces
DYEAR=2001
DGENRE=Pop
TTITLE0=Si jolie
TTITLE1=Clopin-clopant
TTITLE2=Maladie d'amour
TTITLE3=Le loup, la biche et le chevalier
TTITLE4=Mon ange
TTITLE5=Saint-Germain des près
TTITLE6=Le petit souper aux chandelles
TTITLE7=Tout ça
TTITLE8=Cheveux dans le vent
TTITLE9=Ma doudou
TTITLE10=Prends-moé dans tes bras
TTITLE11=Comme j'aimais
TTITLE12=Adieu foulards
TTITLE13=Le portrait de tante caroline
TTITLE14=Ciel de Paris
TTITLE15=Bedelia
TTITLE16=Le Marchand de sable
TTITLE17=Léger
TTITLE18=Quand je me souviens
TTITLE19=Enfance de mon coeur
EXTD=
EXTT0=
EXTT1=
EXTT2=
EXTT3=
EXTT4=
EXTT5=
EXTT6=
EXTT7=
EXTT8=
EXTT9=
EXTT10=
EXTT11=
EXTT12=
EXTT13=
EXTT14=
EXTT15=
EXTT16=
EXTT17=
EXTT18=
EXTT19=
PLAYORDER=
